<svg id="Livello_1" data-name="Livello 1" xmlns="http://www.w3.org/2000/svg" viewBox="0 0 136.81 44.58"><defs><style>.cls-1{fill:#ff1049;}</style></defs><title>logo-ss</title><path class="cls-1" d="M19.83,24.58A13.23,13.23,0,0,1,16,23.1l2.62-5A13.42,13.42,0,0,0,25.43,20a4.89,4.89,0,0,0,2-.32q.69-.32.69-.86T27.4,18a14.29,14.29,0,0,0-2.23-.69,27.28,27.28,0,0,1-3.34-1,6.18,6.18,0,0,1-2.31-1.64,4.21,4.21,0,0,1-1-2.92,6.68,6.68,0,0,1,1.22-4A7.81,7.81,0,0,1,23.28,5a14.39,14.39,0,0,1,5.43-.93,18.67,18.67,0,0,1,4.18.45,11.7,11.7,0,0,1,3.35,1.28L33.8,10.77a9.16,9.16,0,0,0-2.6-1.12,11.43,11.43,0,0,0-2.92-.37,4.83,4.83,0,0,0-2.19.4q-.78.4-.78.95t.7.86a13.87,13.87,0,0,0,2.31.69,25.51,25.51,0,0,1,3.29,1,6,6,0,0,1,2.32,1.61,4.16,4.16,0,0,1,1,2.88,6.51,6.51,0,0,1-1.24,3.94,7.92,7.92,0,0,1-3.54,2.63,14.31,14.31,0,0,1-5.41.93A20.74,20.74,0,0,1,19.83,24.58Z" transform="translate(-4.19 -4.1)"/><path class="cls-1" d="M39.67,4.56h6.78l-4,20.12H35.64Z" transform="translate(-4.19 -4.1)"/><path class="cls-1" d="M73.82,4.56l-4,20.12H63.67l1.78-9.17-5.66,7.36h-3l-3.1-7.24-1.81,9.06H45.7l4-20.12h5.52l4.37,10.69L68,4.56Z" transform="translate(-4.19 -4.1)"/><path class="cls-1" d="M79.06,24a8.4,8.4,0,0,1-3.57-3.18,8.79,8.79,0,0,1-1.25-4.69,12,12,0,0,1,1.62-6.25,11.21,11.21,0,0,1,4.51-4.27A13.81,13.81,0,0,1,86.93,4.1a12.11,12.11,0,0,1,5.39,1.13,8.41,8.41,0,0,1,3.56,3.18,8.78,8.78,0,0,1,1.25,4.69,12.06,12.06,0,0,1-1.62,6.25A11.2,11.2,0,0,1,91,23.62a13.81,13.81,0,0,1-6.54,1.52A12.08,12.08,0,0,1,79.06,24Zm8.77-5.19a5.34,5.34,0,0,0,1.82-2.24,7.43,7.43,0,0,0,.63-3.08,3.87,3.87,0,0,0-1-2.85,3.88,3.88,0,0,0-2.89-1.06,4.77,4.77,0,0,0-2.8.83,5.37,5.37,0,0,0-1.83,2.24,7.43,7.43,0,0,0-.63,3.08A3.65,3.65,0,0,0,85,19.65,4.77,4.77,0,0,0,87.83,18.82Z" transform="translate(-4.19 -4.1)"/><path class="cls-1" d="M121.36,4.56l-4,20.12h-5.58L106,15.31l-1.87,9.37H97.5l4-20.12h5.58l5.78,9.37,1.87-9.37Z" transform="translate(-4.19 -4.1)"/><path class="cls-1" d="M130.28,9.68,129.82,12h8.51l-1,4.89h-8.54l-.52,2.64h10.09l-1,5.12H120.62l4-20.12H141l-1,5.12Z" transform="translate(-4.19 -4.1)"/><path class="cls-1" d="M8,48.12a13.23,13.23,0,0,1-3.79-1.48l2.62-5a13.41,13.41,0,0,0,6.78,1.87,4.89,4.89,0,0,0,2-.32q.69-.32.69-.86t-.7-.83a14.29,14.29,0,0,0-2.23-.69,27.09,27.09,0,0,1-3.33-1,6.19,6.19,0,0,1-2.32-1.64,4.22,4.22,0,0,1-1-2.92,6.66,6.66,0,0,1,1.22-4,7.79,7.79,0,0,1,3.52-2.64,14.39,14.39,0,0,1,5.43-.93,18.67,18.67,0,0,1,4.18.45,11.7,11.7,0,0,1,3.35,1.28L22,34.31a9.16,9.16,0,0,0-2.6-1.12,11.43,11.43,0,0,0-2.92-.37,4.84,4.84,0,0,0-2.19.4q-.78.4-.78.95c0,.36.24.65.7.86a13.84,13.84,0,0,0,2.32.69,25.51,25.51,0,0,1,3.29,1A6,6,0,0,1,22.1,38.3a4.16,4.16,0,0,1,1,2.88,6.52,6.52,0,0,1-1.24,3.94,7.92,7.92,0,0,1-3.54,2.63,14.3,14.3,0,0,1-5.4.93A20.76,20.76,0,0,1,8,48.12Z" transform="translate(-4.19 -4.1)"/><path class="cls-1" d="M39.23,37.61h5.89L43.4,46.29a12.31,12.31,0,0,1-3.69,1.77,15.67,15.67,0,0,1-4.47.62,12.27,12.27,0,0,1-5.42-1.14,8.4,8.4,0,0,1-4.9-7.86,11.89,11.89,0,0,1,1.64-6.24,11.37,11.37,0,0,1,4.57-4.27,14.28,14.28,0,0,1,6.73-1.54q6.27,0,9.14,3.94l-4.86,3.77a5.67,5.67,0,0,0-2-1.71,6.07,6.07,0,0,0-2.56-.5,5.88,5.88,0,0,0-3.06.78,5.19,5.19,0,0,0-2,2.17,7,7,0,0,0-.7,3.18,3.69,3.69,0,0,0,1.18,2.86,4.64,4.64,0,0,0,3.25,1.08,6.8,6.8,0,0,0,2-.29Z" transform="translate(-4.19 -4.1)"/><path class="cls-1" d="M60.57,44.71H52.89l-2,3.51H43.72L56.54,28.1h6.67L68,48.22H61.23Zm-.95-4.89-1-5.15-3,5.15Z" transform="translate(-4.19 -4.1)"/><path class="cls-1" d="M89.07,39.38a8.42,8.42,0,0,1-4,3l3.36,5.87h-7l-2.85-5.06H76.87l-1,5.06H69.08l4-20.12h9a9.72,9.72,0,0,1,6.17,1.74,5.86,5.86,0,0,1,2.2,4.87A7.85,7.85,0,0,1,89.07,39.38Zm-8-6.05H78.82L77.87,38h2.79a3.14,3.14,0,0,0,2.19-.7,2.52,2.52,0,0,0,.77-2Q83.62,33.33,81.09,33.33Z" transform="translate(-4.19 -4.1)"/><path class="cls-1" d="M110.49,39.38a8.42,8.42,0,0,1-4,3l3.36,5.87h-7L100,43.16H98.28l-1,5.06H90.49l4-20.12h9a9.72,9.72,0,0,1,6.17,1.74,5.86,5.86,0,0,1,2.2,4.87A7.85,7.85,0,0,1,110.49,39.38Zm-8-6.05h-2.27L99.29,38h2.79a3.14,3.14,0,0,0,2.19-.7,2.52,2.52,0,0,0,.77-2Q105,33.33,102.51,33.33Z" transform="translate(-4.19 -4.1)"/><path class="cls-1" d="M117.85,47.54a8.42,8.42,0,0,1-3.57-3.18A8.79,8.79,0,0,1,113,39.68a12,12,0,0,1,1.62-6.25,11.21,11.21,0,0,1,4.51-4.27,13.81,13.81,0,0,1,6.54-1.52,12.11,12.11,0,0,1,5.39,1.13,8.43,8.43,0,0,1,3.57,3.18,8.8,8.8,0,0,1,1.25,4.69,12,12,0,0,1-1.62,6.25,11.21,11.21,0,0,1-4.51,4.27,13.82,13.82,0,0,1-6.54,1.52A12.08,12.08,0,0,1,117.85,47.54Zm8.77-5.19a5.33,5.33,0,0,0,1.82-2.24,7.44,7.44,0,0,0,.63-3.08,3.65,3.65,0,0,0-3.94-3.91,4.77,4.77,0,0,0-2.8.83,5.35,5.35,0,0,0-1.82,2.24,7.4,7.4,0,0,0-.63,3.08,3.65,3.65,0,0,0,3.94,3.91A4.77,4.77,0,0,0,126.62,42.35Z" transform="translate(-4.19 -4.1)"/></svg>